<svg width="92" height="30" viewBox="0 0 92 30" fill="none" xmlns="http://www.w3.org/2000/svg">
<path d="M4.8543 23H1.87578V8.72266H10.0594V11.2031H4.8543V14.8848H9.69805V17.3555H4.8543V23ZM15.9965 23H13.018V7.80469H15.9965V23ZM24.0332 11.877C25.0423 11.877 25.9115 12.0723 26.6406 12.4629C27.3698 12.847 27.9329 13.4069 28.3301 14.1426C28.7272 14.8783 28.9258 15.7767 28.9258 16.8379V18.2832H21.8848C21.9173 19.123 22.168 19.7839 22.6367 20.2656C23.112 20.7409 23.7695 20.9785 24.6094 20.9785C25.306 20.9785 25.944 20.9069 26.5234 20.7637C27.1029 20.6204 27.6986 20.4056 28.3105 20.1191V22.4238C27.7702 22.6908 27.2038 22.8861 26.6113 23.0098C26.0254 23.1335 25.3125 23.1953 24.4727 23.1953C23.3789 23.1953 22.4089 22.9935 21.5625 22.5898C20.7227 22.1862 20.0618 21.571 19.5801 20.7441C19.1048 19.9173 18.8672 18.8757 18.8672 17.6191C18.8672 16.3431 19.082 15.2819 19.5117 14.4355C19.9479 13.5827 20.5534 12.9447 21.3281 12.5215C22.1029 12.0918 23.0046 11.877 24.0332 11.877ZM24.0527 13.9961C23.4733 13.9961 22.9915 14.1816 22.6074 14.5527C22.2298 14.9238 22.0117 15.5065 21.9531 16.3008H26.1328C26.1263 15.8581 26.0449 15.4642 25.8887 15.1191C25.7389 14.7741 25.5111 14.5007 25.2051 14.2988C24.9056 14.097 24.5215 13.9961 24.0527 13.9961ZM49.5398 8.72266H53.9832C55.8842 8.72266 57.323 8.98958 58.2996 9.52344C59.2762 10.0573 59.7645 10.9948 59.7645 12.3359C59.7645 12.8763 59.6766 13.3646 59.5008 13.8008C59.3315 14.237 59.0841 14.5951 58.7586 14.875C58.4331 15.1549 58.0359 15.3372 57.5672 15.4219V15.5195C58.0424 15.6172 58.4721 15.7865 58.8563 16.0273C59.2404 16.2617 59.5464 16.6068 59.7742 17.0625C60.0086 17.5117 60.1258 18.1107 60.1258 18.8594C60.1258 19.7253 59.9142 20.4674 59.491 21.0859C59.0678 21.7044 58.4624 22.1797 57.6746 22.5117C56.8934 22.8372 55.9624 23 54.8816 23H49.5398V8.72266ZM52.5672 14.377H54.325C55.2039 14.377 55.8126 14.2402 56.1512 13.9668C56.4897 13.6868 56.659 13.2767 56.659 12.7363C56.659 12.1895 56.4572 11.7988 56.0535 11.5645C55.6564 11.3236 55.0249 11.2031 54.159 11.2031H52.5672V14.377ZM52.5672 16.7793V20.5H54.5398C55.4513 20.5 56.0861 20.3242 56.4441 19.9727C56.8022 19.6211 56.9813 19.1491 56.9813 18.5566C56.9813 18.2051 56.9031 17.8958 56.7469 17.6289C56.5906 17.362 56.327 17.1536 55.9559 17.0039C55.5913 16.8542 55.0867 16.7793 54.4422 16.7793H52.5672ZM78.6602 17.5215C78.6602 18.4329 78.5365 19.2402 78.2891 19.9434C78.0482 20.6465 77.6934 21.2422 77.2246 21.7305C76.7624 22.2122 76.2025 22.5768 75.5449 22.8242C74.8939 23.0716 74.1582 23.1953 73.3379 23.1953C72.5697 23.1953 71.8633 23.0716 71.2188 22.8242C70.5807 22.5768 70.0241 22.2122 69.5488 21.7305C69.0801 21.2422 68.7155 20.6465 68.4551 19.9434C68.2012 19.2402 68.0742 18.4329 68.0742 17.5215C68.0742 16.3105 68.2891 15.2852 68.7188 14.4453C69.1484 13.6055 69.7604 12.9674 70.5547 12.5312C71.349 12.0951 72.2962 11.877 73.3965 11.877C74.4186 11.877 75.3236 12.0951 76.1113 12.5312C76.9056 12.9674 77.5273 13.6055 77.9766 14.4453C78.4323 15.2852 78.6602 16.3105 78.6602 17.5215ZM71.1113 17.5215C71.1113 18.2376 71.1895 18.8398 71.3457 19.3281C71.502 19.8164 71.7461 20.1842 72.0781 20.4316C72.4102 20.679 72.8431 20.8027 73.377 20.8027C73.9043 20.8027 74.3307 20.679 74.6562 20.4316C74.9883 20.1842 75.2292 19.8164 75.3789 19.3281C75.5352 18.8398 75.6133 18.2376 75.6133 17.5215C75.6133 16.7988 75.5352 16.1999 75.3789 15.7246C75.2292 15.2428 74.9883 14.8815 74.6562 14.6406C74.3242 14.3997 73.8913 14.2793 73.3574 14.2793C72.5697 14.2793 71.9967 14.5495 71.6387 15.0898C71.2871 15.6302 71.1113 16.4408 71.1113 17.5215Z" fill="black"/>
<path d="M39.5793 17.4238L36.0637 12.082H39.4426L41.5617 15.5586L43.7004 12.082H47.0793L43.5246 17.4238L47.2453 23H43.8566L41.5617 19.2598L39.257 23H35.8781L39.5793 17.4238ZM83.7574 17.4238L80.2418 12.082H83.6207L85.7398 15.5586L87.8785 12.082H91.2574L87.7027 17.4238L91.4234 23H88.0348L85.7398 19.2598L83.4352 23H80.0562L83.7574 17.4238Z" fill="#A10B0C"/>
<line x1="32.5" y1="2" x2="32.5" y2="30" stroke="#A10B0C"/>
<line x1="33" y1="2.5" x2="65" y2="2.5" stroke="#A10B0C"/>
<line x1="32" y1="29.5" x2="66" y2="29.5" stroke="#A10B0C"/>
<line x1="65.5" y1="2" x2="65.5" y2="30" stroke="#A10B0C"/>
<line x1="3" y1="24.5" x2="32" y2="24.5" stroke="#A10B0C"/>
<line x1="65" y1="24.5" x2="90" y2="24.5" stroke="#A10B0C"/>
</svg>
